<svg xmlns="http://www.w3.org/2000/svg" xmlns:xlink="http://www.w3.org/1999/xlink" width="500" zoomAndPan="magnify" viewBox="0 0 375 374.999991" height="500" preserveAspectRatio="xMidYMid meet" version="1.0"><defs><g/><clipPath id="2039274e54"><path d="M 8 21.398438 L 367.183594 21.398438 L 367.183594 353.648438 L 8 353.648438 Z M 8 21.398438 " clip-rule="nonzero"/></clipPath><clipPath id="02cc0da717"><path d="M 75.46875 139.972656 L 248.378906 139.972656 L 248.378906 235 L 75.46875 235 Z M 75.46875 139.972656 " clip-rule="nonzero"/></clipPath><clipPath id="2996bd8660"><path d="M 230 141.585938 L 264 141.585938 L 264 187.335938 L 230 187.335938 Z M 230 141.585938 " clip-rule="nonzero"/></clipPath></defs><g clip-path="url(#2039274e54)"><path fill="#38b6ff" d="M 102.359375 21.4375 C 50.359375 21.4375 8.15625 63.636719 8.15625 115.628906 C 8.15625 221.402344 114.863281 249.132812 187.582031 353.695312 C 256.328125 249.773438 367.003906 218.019531 367.003906 115.628906 C 367.003906 63.636719 324.800781 21.4375 272.800781 21.4375 C 235.082031 21.4375 202.621094 43.707031 187.582031 75.746094 C 172.539062 43.707031 140.074219 21.4375 102.359375 21.4375 Z M 102.359375 21.4375 " fill-opacity="1" fill-rule="nonzero"/></g><g clip-path="url(#02cc0da717)"><path fill="#ffffff" d="M 75.46875 189.316406 C 75.46875 189.320312 75.46875 189.324219 75.46875 189.328125 C 75.46875 189.332031 75.46875 189.332031 75.46875 189.335938 L 75.46875 190.636719 L 78.414062 190.636719 L 78.414062 190.632812 L 99.222656 190.632812 C 99.828125 190.632812 100.355469 190.214844 100.492188 189.625 L 101.285156 186.210938 L 105.320312 206.8125 C 105.441406 207.425781 105.976562 207.867188 106.597656 207.867188 C 106.605469 207.867188 106.613281 207.867188 106.621094 207.867188 C 107.253906 207.855469 107.785156 207.394531 107.882812 206.769531 L 116.644531 151.789062 L 123.953125 233.683594 C 124.015625 234.355469 124.574219 234.871094 125.25 234.871094 C 125.921875 234.871094 126.484375 234.359375 126.546875 233.6875 L 130.054688 195.546875 L 132.78125 200.648438 C 133.027344 201.109375 133.527344 201.378906 134.042969 201.332031 C 134.5625 201.285156 135.003906 200.933594 135.164062 200.4375 L 140.941406 182.667969 L 148.757812 203.964844 C 148.945312 204.484375 149.445312 204.832031 149.996094 204.820312 C 150.546875 204.8125 151.035156 204.457031 151.210938 203.933594 L 155.683594 190.636719 L 248.71875 190.636719 L 248.71875 188.019531 L 154.75 188.019531 C 154.191406 188.019531 153.695312 188.378906 153.519531 188.910156 L 149.925781 199.585938 L 142.089844 178.234375 C 141.902344 177.722656 141.414062 177.382812 140.871094 177.382812 C 140.859375 177.382812 140.855469 177.382812 140.84375 177.382812 C 140.292969 177.394531 139.804688 177.753906 139.632812 178.285156 L 133.636719 196.71875 L 130.300781 190.484375 C 130.03125 189.976562 129.457031 189.707031 128.898438 189.820312 C 128.332031 189.9375 127.914062 190.40625 127.859375 190.980469 L 125.269531 219.144531 L 118.304688 141.113281 C 118.25 140.457031 117.710938 139.949219 117.054688 139.925781 C 117.039062 139.925781 117.023438 139.925781 117.007812 139.925781 C 116.375 139.925781 115.824219 140.390625 115.726562 141.023438 L 106.464844 199.121094 L 102.667969 179.742188 C 102.550781 179.136719 102.027344 178.699219 101.414062 178.6875 C 100.808594 178.679688 100.261719 179.097656 100.125 179.695312 L 98.191406 188.019531 L 76.769531 188.019531 C 76.765625 188.019531 76.761719 188.019531 76.757812 188.019531 L 75.46875 188.019531 Z M 75.46875 189.316406 " fill-opacity="1" fill-rule="nonzero"/></g><g fill="#000000" fill-opacity="1"><g transform="translate(29.524975, 175.08401)"><g><path d="M 23.03125 -44.609375 C 26.226562 -44.609375 28.957031 -44.019531 31.21875 -42.84375 C 33.488281 -41.675781 35.203125 -40.039062 36.359375 -37.9375 C 37.523438 -35.832031 38.109375 -33.382812 38.109375 -30.59375 C 38.109375 -27.8125 37.523438 -25.375 36.359375 -23.28125 C 35.203125 -21.1875 33.488281 -19.550781 31.21875 -18.375 C 28.957031 -17.207031 26.226562 -16.625 23.03125 -16.625 L 14.609375 -16.625 L 14.609375 0 L 5.796875 0 L 5.796875 -44.609375 Z M 21.875 -23.609375 C 26.78125 -23.609375 29.234375 -25.9375 29.234375 -30.59375 C 29.234375 -35.28125 26.78125 -37.625 21.875 -37.625 L 14.609375 -37.625 L 14.609375 -23.609375 Z M 21.875 -23.609375 "/></g></g></g><g fill="#000000" fill-opacity="1"><g transform="translate(70.285591, 175.08401)"><g><path d="M 15.40625 0.640625 C 11.625 0.640625 8.832031 -0.390625 7.03125 -2.453125 C 5.226562 -4.515625 4.328125 -7.476562 4.328125 -11.34375 L 4.328125 -33.65625 L 12.78125 -33.65625 L 12.78125 -12.421875 C 12.78125 -10.367188 13.222656 -8.867188 14.109375 -7.921875 C 14.992188 -6.972656 16.363281 -6.5 18.21875 -6.5 C 20.550781 -6.5 22.367188 -7.265625 23.671875 -8.796875 C 24.972656 -10.335938 25.625 -12.753906 25.625 -16.046875 L 25.625 -33.65625 L 34.078125 -33.65625 L 34.078125 0 L 25.96875 0 L 25.96875 -4.9375 L 25.328125 -5.09375 C 24.242188 -3.164062 22.921875 -1.726562 21.359375 -0.78125 C 19.804688 0.164062 17.820312 0.640625 15.40625 0.640625 Z M 15.40625 0.640625 "/></g></g></g><g fill="#000000" fill-opacity="1"><g transform="translate(109.215641, 175.08401)"><g/></g></g><g fill="#000000" fill-opacity="1"><g transform="translate(123.951711, 175.08401)"><g><path d="M 15.75 0.640625 C 13.445312 0.640625 11.335938 0.375 9.421875 -0.15625 C 7.515625 -0.695312 5.882812 -1.441406 4.53125 -2.390625 C 3.175781 -3.335938 2.175781 -4.421875 1.53125 -5.640625 L 6.21875 -10.703125 L 6.859375 -10.703125 C 7.984375 -9.203125 9.304688 -8.070312 10.828125 -7.3125 C 12.359375 -6.5625 14.015625 -6.1875 15.796875 -6.1875 C 17.453125 -6.1875 18.695312 -6.484375 19.53125 -7.078125 C 20.363281 -7.671875 20.78125 -8.515625 20.78125 -9.609375 C 20.78125 -10.460938 20.476562 -11.175781 19.875 -11.75 C 19.28125 -12.332031 18.3125 -12.789062 16.96875 -13.125 L 12.515625 -14.1875 C 9.171875 -14.976562 6.734375 -16.191406 5.203125 -17.828125 C 3.671875 -19.472656 2.90625 -21.554688 2.90625 -24.078125 C 2.90625 -26.171875 3.4375 -27.988281 4.5 -29.53125 C 5.570312 -31.082031 7.078125 -32.265625 9.015625 -33.078125 C 10.953125 -33.890625 13.210938 -34.296875 15.796875 -34.296875 C 18.828125 -34.296875 21.335938 -33.859375 23.328125 -32.984375 C 25.328125 -32.109375 26.890625 -30.9375 28.015625 -29.46875 L 23.5 -24.59375 L 22.875 -24.59375 C 21.945312 -25.644531 20.894531 -26.414062 19.71875 -26.90625 C 18.550781 -27.394531 17.242188 -27.640625 15.796875 -27.640625 C 12.460938 -27.640625 10.796875 -26.601562 10.796875 -24.53125 C 10.796875 -23.65625 11.101562 -22.941406 11.71875 -22.390625 C 12.34375 -21.847656 13.441406 -21.398438 15.015625 -21.046875 L 19.15625 -20.140625 C 22.570312 -19.398438 25.066406 -18.222656 26.640625 -16.609375 C 28.222656 -14.992188 29.015625 -12.820312 29.015625 -10.09375 C 29.015625 -7.957031 28.484375 -6.078125 27.421875 -4.453125 C 26.367188 -2.828125 24.84375 -1.570312 22.84375 -0.6875 C 20.851562 0.195312 18.488281 0.640625 15.75 0.640625 Z M 15.75 0.640625 "/></g></g></g><g fill="#000000" fill-opacity="1"><g transform="translate(154.979824, 175.08401)"><g><path d="M 33.25 -14.921875 L 11.625 -14.921875 C 11.863281 -11.992188 12.695312 -9.863281 14.125 -8.53125 C 15.550781 -7.195312 17.492188 -6.53125 19.953125 -6.53125 C 21.890625 -6.53125 23.457031 -6.890625 24.65625 -7.609375 C 25.851562 -8.335938 26.816406 -9.429688 27.546875 -10.890625 L 28.1875 -10.890625 L 33.8125 -7.296875 C 32.707031 -4.929688 31.046875 -3.015625 28.828125 -1.546875 C 26.609375 -0.0859375 23.648438 0.640625 19.953125 0.640625 C 16.472656 0.640625 13.46875 -0.0195312 10.9375 -1.34375 C 8.40625 -2.664062 6.453125 -4.632812 5.078125 -7.25 C 3.703125 -9.863281 3.015625 -13.050781 3.015625 -16.8125 C 3.015625 -20.632812 3.738281 -23.859375 5.1875 -26.484375 C 6.632812 -29.109375 8.585938 -31.066406 11.046875 -32.359375 C 13.503906 -33.648438 16.269531 -34.296875 19.34375 -34.296875 C 24.101562 -34.296875 27.75 -33.035156 30.28125 -30.515625 C 32.8125 -27.992188 34.078125 -24.289062 34.078125 -19.40625 C 34.078125 -17.632812 34.015625 -16.257812 33.890625 -15.28125 Z M 26 -20.375 C 25.914062 -22.9375 25.316406 -24.800781 24.203125 -25.96875 C 23.097656 -27.144531 21.476562 -27.734375 19.34375 -27.734375 C 15.070312 -27.734375 12.5625 -25.28125 11.8125 -20.375 Z M 26 -20.375 "/></g></g></g><g fill="#000000" fill-opacity="1"><g transform="translate(191.560655, 175.08401)"><g><path d="M 23.03125 -44.609375 C 26.226562 -44.609375 28.957031 -44.019531 31.21875 -42.84375 C 33.488281 -41.675781 35.203125 -40.039062 36.359375 -37.9375 C 37.523438 -35.832031 38.109375 -33.382812 38.109375 -30.59375 C 38.109375 -27.8125 37.523438 -25.375 36.359375 -23.28125 C 35.203125 -21.1875 33.488281 -19.550781 31.21875 -18.375 C 28.957031 -17.207031 26.226562 -16.625 23.03125 -16.625 L 14.609375 -16.625 L 14.609375 0 L 5.796875 0 L 5.796875 -44.609375 Z M 21.875 -23.609375 C 26.78125 -23.609375 29.234375 -25.9375 29.234375 -30.59375 C 29.234375 -35.28125 26.78125 -37.625 21.875 -37.625 L 14.609375 -37.625 L 14.609375 -23.609375 Z M 21.875 -23.609375 "/></g></g></g><g fill="#000000" fill-opacity="1"><g transform="translate(232.316641, 175.08401)"><g/></g></g><g fill="#000000" fill-opacity="1"><g transform="translate(247.052711, 175.08401)"><g/></g></g><g fill="#000000" fill-opacity="1"><g transform="translate(261.77334, 175.08401)"><g><path d="M 9.0625 -37.6875 C 7.53125 -37.6875 6.285156 -38.144531 5.328125 -39.0625 C 4.378906 -39.988281 3.90625 -41.1875 3.90625 -42.65625 C 3.90625 -44.09375 4.378906 -45.273438 5.328125 -46.203125 C 6.285156 -47.128906 7.53125 -47.59375 9.0625 -47.59375 C 10.082031 -47.59375 10.988281 -47.378906 11.78125 -46.953125 C 12.570312 -46.523438 13.1875 -45.941406 13.625 -45.203125 C 14.0625 -44.460938 14.28125 -43.613281 14.28125 -42.65625 C 14.28125 -41.695312 14.0625 -40.84375 13.625 -40.09375 C 13.1875 -39.34375 12.570312 -38.753906 11.78125 -38.328125 C 10.988281 -37.898438 10.082031 -37.6875 9.0625 -37.6875 Z M 4.84375 0 L 4.84375 -33.65625 L 13.296875 -33.65625 L 13.296875 0 Z M 4.84375 0 "/></g></g></g><g fill="#000000" fill-opacity="1"><g transform="translate(279.895949, 175.08401)"><g><path d="M 4.84375 0 L 4.84375 -33.65625 L 12.96875 -33.65625 L 12.96875 -28.703125 L 13.609375 -28.5625 C 15.703125 -32.382812 19.097656 -34.296875 23.796875 -34.296875 C 27.679688 -34.296875 30.535156 -33.238281 32.359375 -31.125 C 34.179688 -29.007812 35.09375 -25.925781 35.09375 -21.875 L 35.09375 0 L 26.640625 0 L 26.640625 -20.84375 C 26.640625 -23.070312 26.191406 -24.679688 25.296875 -25.671875 C 24.398438 -26.660156 22.960938 -27.15625 20.984375 -27.15625 C 18.566406 -27.15625 16.679688 -26.367188 15.328125 -24.796875 C 13.972656 -23.234375 13.296875 -20.773438 13.296875 -17.421875 L 13.296875 0 Z M 4.84375 0 "/></g></g></g><g fill="#000000" fill-opacity="1"><g transform="translate(319.31415, 175.08401)"><g><path d="M 23.21875 -8.03125 L 25.421875 -1.765625 C 24.503906 -1.015625 23.351562 -0.425781 21.96875 0 C 20.582031 0.425781 19.015625 0.640625 17.265625 0.640625 C 13.628906 0.640625 10.863281 -0.347656 8.96875 -2.328125 C 7.070312 -4.316406 6.125 -7.203125 6.125 -10.984375 L 6.125 -26.96875 L 1 -26.96875 L 1 -33.6875 L 6.125 -33.6875 L 6.125 -40.25 L 14.578125 -41.609375 L 14.578125 -33.6875 L 24.140625 -33.6875 L 24.140625 -26.96875 L 14.578125 -26.96875 L 14.578125 -11.59375 C 14.578125 -9.925781 14.921875 -8.707031 15.609375 -7.9375 C 16.304688 -7.175781 17.316406 -6.796875 18.640625 -6.796875 C 20.148438 -6.796875 21.460938 -7.207031 22.578125 -8.03125 Z M 23.21875 -8.03125 "/></g></g></g><g clip-path="url(#2996bd8660)"><path fill="#ff3131" d="M 261.875 150.859375 C 259.15625 145.367188 253.933594 141.921875 247.902344 141.648438 C 247.335938 141.625 246.761719 141.625 246.195312 141.648438 C 240.171875 141.921875 234.949219 145.367188 232.226562 150.859375 C 229.421875 156.515625 229.859375 162.988281 233.402344 168.171875 L 246.117188 186.804688 C 246.328125 187.109375 246.679688 187.296875 247.054688 187.296875 C 247.425781 187.296875 247.78125 187.109375 247.988281 186.800781 L 260.703125 168.167969 C 264.242188 162.988281 264.679688 156.515625 261.875 150.859375 Z M 258.832031 166.875 L 247.054688 184.140625 L 235.273438 166.875 C 232.210938 162.390625 231.835938 156.777344 234.265625 151.875 C 236.613281 147.136719 241.109375 144.160156 246.296875 143.925781 C 246.796875 143.90625 247.300781 143.90625 247.800781 143.925781 C 252.988281 144.160156 257.492188 147.136719 259.839844 151.875 C 262.269531 156.777344 261.894531 162.390625 258.832031 166.875 Z M 251.234375 150.765625 C 249.730469 150.691406 248.25 151.136719 247.054688 152.035156 C 245.945312 151.207031 244.613281 150.761719 243.203125 150.761719 C 243.089844 150.761719 242.984375 150.761719 242.871094 150.765625 C 240.695312 150.875 238.84375 152.226562 238.039062 154.289062 C 237.214844 156.40625 237.675781 158.730469 239.246094 160.34375 L 246.234375 167.539062 C 246.457031 167.761719 246.746094 167.886719 247.054688 167.886719 C 247.359375 167.886719 247.648438 167.761719 247.863281 167.542969 L 254.851562 160.351562 C 256.425781 158.734375 256.882812 156.414062 256.0625 154.292969 C 255.261719 152.226562 253.410156 150.878906 251.234375 150.765625 Z M 253.230469 158.753906 L 247.054688 165.113281 L 240.875 158.753906 C 239.753906 157.597656 239.769531 156.121094 240.15625 155.121094 C 240.636719 153.890625 241.695312 153.113281 242.988281 153.042969 C 243.058594 153.042969 243.128906 153.042969 243.203125 153.042969 C 244.355469 153.042969 245.433594 153.507812 246.234375 154.339844 C 246.449219 154.5625 246.746094 154.6875 247.054688 154.6875 C 247.359375 154.6875 247.65625 154.5625 247.871094 154.339844 C 248.722656 153.449219 249.902344 152.980469 251.121094 153.050781 C 252.417969 153.117188 253.472656 153.890625 253.949219 155.128906 C 254.335938 156.121094 254.351562 157.597656 253.230469 158.753906 Z M 253.230469 158.753906 " fill-opacity="1" fill-rule="nonzero"/></g></svg>